{
  "asset": {
    "generator": "Microsoft GLTF Exporter 2.8.3.41",
    "version": "2.0"
  },
  "accessors": [
    {
      "bufferView": 0,
      "componentType": 5123,
      "count": 44937,
      "type": "SCALAR"
    },
    {
      "bufferView": 1,
      "componentType": 5126,
      "count": 8242,
      "type": "VEC3",
      "max": [
        7.31804084777832,
        24.69900131225586,
        5.983739376068115
      ],
      "min": [
        -7.436141014099121,
        0,
        -8.342395782470703
      ]
    },
    {
      "bufferView": 2,
      "componentType": 5126,
      "count": 8242,
      "type": "VEC3"
    },
    {
      "bufferView": 3,
      "componentType": 5126,
      "count": 8242,
      "type": "VEC4"
    },
    {
      "bufferView": 4,
      "componentType": 5126,
      "count": 8242,
      "type": "VEC2"
    }
  ],
  "bufferViews": [
    {
      "buffer": 0,
      "byteOffset": 0,
      "byteLength": 89876,
      "target": 34963
    },
    {
      "buffer": 0,
      "byteOffset": 89876,
      "byteLength": 98904,
      "target": 34962
    },
    {
      "buffer": 0,
      "byteOffset": 188780,
      "byteLength": 98904,
      "target": 34962
    },
    {
      "buffer": 0,
      "byteOffset": 287684,
      "byteLength": 131872,
      "target": 34962
    },
    {
      "buffer": 0,
      "byteOffset": 419556,
      "byteLength": 65936,
      "target": 34962
    }
  ],
  "buffers": [
    {
      "uri": "heart_data.bin",
      "byteLength": 485492
    }
  ],
  "images": [
    {
      "uri": "heart_img0.png"
    },
    {
      "uri": "heart_img1.png"
    },
    {
      "uri": "heart_img2.png"
    },
    {
      "uri": "heart_img3.png"
    }
  ],
  "materials": [
    {
      "pbrMetallicRoughness": {},
      "normalTexture": {
        "index": 2
      },
      "occlusionTexture": {
        "index": 3
      },
      "doubleSided": true,
      "extensions": {
        "KHR_materials_pbrSpecularGlossiness": {
          "diffuseTexture": {
            "index": 0
          },
          "specularGlossinessTexture": {
            "index": 1
          }
        }
      }
    }
  ],
  "meshes": [
    {
      "primitives": [
        {
          "attributes": {
            "TANGENT": 3,
            "NORMAL": 2,
            "POSITION": 1,
            "TEXCOORD_0": 4
          },
          "indices": 0,
          "material": 0
        }
      ]
    }
  ],
  "nodes": [
    {
      "children": [
        1
      ],
      "scale": [
        0.009999999776482582,
        0.009999999776482582,
        0.009999999776482582
      ],
      "name": "RootNode.0"
    },
    {
      "mesh": 0,
      "name": "human_heart.1"
    }
  ],
  "samplers": [
    {
      "magFilter": 9729,
      "minFilter": 9985
    },
    {
      "magFilter": 9729,
      "minFilter": 9985
    },
    {
      "magFilter": 9729,
      "minFilter": 9985
    },
    {
      "magFilter": 9729,
      "minFilter": 9985
    }
  ],
  "scenes": [
    {
      "nodes": [
        0
      ]
    }
  ],
  "textures": [
    {
      "sampler": 0,
      "source": 0
    },
    {
      "sampler": 1,
      "source": 1
    },
    {
      "sampler": 2,
      "source": 2
    },
    {
      "sampler": 3,
      "source": 3
    }
  ],
  "scene": 0,
  "extensionsUsed": [
    "KHR_materials_pbrSpecularGlossiness"
  ],
  "extensionsRequired": [
    "KHR_materials_pbrSpecularGlossiness"
  ]
}