{
	"asset":{
		"generator":"Khronos glTF Blender I/O v3.6.27",
		"version":"2.0"
	},
	"scene":0,
	"scenes":[
		{
			"name":"Scene",
			"nodes":[
				3
			]
		}
	],
	"nodes":[
		{
			"mesh":0,
			"name":"animal_cell_section_in.2",
			"rotation":[
				0.02603415586054325,
				0.3708004653453827,
				0.01039920374751091,
				0.9282894730567932
			]
		},
		{
			"mesh":1,
			"name":"animal_cell_section_out.3",
			"rotation":[
				0.02603415586054325,
				0.3708004653453827,
				0.01039920374751091,
				0.9282894730567932
			]
		},
		{
			"children":[
				0,
				1
			],
			"name":"animal_cell_section.1"
		},
		{
			"children":[
				2
			],
			"name":"RootNode.0",
			"rotation":[
				-0.017341606318950653,
				-0.008164005354046822,
				0.00014160298451315612,
				0.9998162984848022
			],
			"scale":[
				0.2531876564025879,
				0.2531876564025879,
				0.2531876564025879
			],
			"translation":[
				0.284267783164978,
				-1.5265735387802124,
				0.31989771127700806
			]
		}
	],
	"materials":[
		{
			"alphaMode":"BLEND",
			"doubleSided":true,
			"name":"Material_0",
			"occlusionTexture":{
				"index":0
			},
			"pbrMetallicRoughness":{}
		},
		{
			"alphaCutoff":0.5,
			"alphaMode":"MASK",
			"doubleSided":true,
			"name":"Material_1",
			"normalTexture":{
				"index":1
			},
			"occlusionTexture":{
				"index":2
			},
			"pbrMetallicRoughness":{
				"baseColorTexture":{
					"index":3
				},
				"metallicFactor":0,
				"roughnessFactor":0.5
			}
		}
	],
	"meshes":[
		{
			"name":"Mesh_0",
			"primitives":[
				{
					"attributes":{
						"POSITION":0,
						"NORMAL":1,
						"TEXCOORD_0":2
					},
					"indices":3,
					"material":0
				}
			]
		},
		{
			"name":"Mesh_1",
			"primitives":[
				{
					"attributes":{
						"POSITION":4,
						"NORMAL":5,
						"TEXCOORD_0":6
					},
					"indices":7,
					"material":1
				}
			]
		}
	],
	"textures":[
		{
			"sampler":0,
			"source":0
		},
		{
			"sampler":0,
			"source":1
		},
		{
			"sampler":0,
			"source":0
		},
		{
			"sampler":0,
			"source":2
		}
	],
	"images":[
		{
			"mimeType":"image/png",
			"name":"Image_3",
			"uri":"Image_3.png"
		},
		{
			"mimeType":"image/png",
			"name":"Image_2",
			"uri":"Image_2.png"
		},
		{
			"mimeType":"image/png",
			"name":"Image_0",
			"uri":"Image_0.png"
		}
	],
	"accessors":[
		{
			"bufferView":0,
			"componentType":5126,
			"count":1821,
			"max":[
				6.755041122436523,
				13.597694396972656,
				8.630951881408691
			],
			"min":[
				-6.70118522644043,
				0.1942582130432129,
				-8.202251434326172
			],
			"type":"VEC3"
		},
		{
			"bufferView":1,
			"componentType":5126,
			"count":1821,
			"type":"VEC3"
		},
		{
			"bufferView":2,
			"componentType":5126,
			"count":1821,
			"type":"VEC2"
		},
		{
			"bufferView":3,
			"componentType":5123,
			"count":9894,
			"type":"SCALAR"
		},
		{
			"bufferView":4,
			"componentType":5126,
			"count":27769,
			"max":[
				7.417947769165039,
				13.875720977783203,
				8.879161834716797
			],
			"min":[
				-6.997278213500977,
				0,
				-8.492698669433594
			],
			"type":"VEC3"
		},
		{
			"bufferView":5,
			"componentType":5126,
			"count":27769,
			"type":"VEC3"
		},
		{
			"bufferView":6,
			"componentType":5126,
			"count":27769,
			"type":"VEC2"
		},
		{
			"bufferView":7,
			"componentType":5123,
			"count":140847,
			"type":"SCALAR"
		}
	],
	"bufferViews":[
		{
			"buffer":0,
			"byteLength":21852,
			"byteOffset":0,
			"target":34962
		},
		{
			"buffer":0,
			"byteLength":21852,
			"byteOffset":21852,
			"target":34962
		},
		{
			"buffer":0,
			"byteLength":14568,
			"byteOffset":43704,
			"target":34962
		},
		{
			"buffer":0,
			"byteLength":19788,
			"byteOffset":58272,
			"target":34963
		},
		{
			"buffer":0,
			"byteLength":333228,
			"byteOffset":78060,
			"target":34962
		},
		{
			"buffer":0,
			"byteLength":333228,
			"byteOffset":411288,
			"target":34962
		},
		{
			"buffer":0,
			"byteLength":222152,
			"byteOffset":744516,
			"target":34962
		},
		{
			"buffer":0,
			"byteLength":281694,
			"byteOffset":966668,
			"target":34963
		}
	],
	"samplers":[
		{
			"magFilter":9729,
			"minFilter":9987
		}
	],
	"buffers":[
		{
			"byteLength":1248364,
			"uri":"cell.bin"
		}
	]
}
