<svg width="153" height="139" viewBox="0 0 153 139" fill="none" xmlns="http://www.w3.org/2000/svg">
<path fill-rule="evenodd" clip-rule="evenodd" d="M112.955 105.917L104.458 101.959L109.382 90.9417L117.884 94.8909L116.98 85.4379L128.837 84.299L129.749 93.7512L137.343 88.256L144.275 98.1341L136.686 103.637L145.183 107.595L140.259 118.612L131.758 114.663L132.661 124.116L120.805 125.255L119.892 115.802L112.298 121.298L105.367 111.42L112.955 105.917Z" fill="#4167E3"/>
<path d="M32 47C32 55.2843 25.2843 62 17 62C8.71573 62 2 55.2843 2 47C2 38.7157 8.71573 32 17 32C25.2843 32 32 38.7157 32 47Z" fill="#E01E5A"/>
<path d="M50 114C50 127.807 38.8071 139 25 139C11.1929 139 0 127.807 0 114C0 100.193 11.1929 89 25 89C38.8071 89 50 100.193 50 114Z" fill="#2EB67D"/>
<path fill-rule="evenodd" clip-rule="evenodd" d="M192.329 14.4973L192.495 15.0677L192.938 15.6469L193.575 16.241L194.327 16.8526L195.112 17.4813L195.849 18.1233L196.457 18.7718L196.863 19.4172L197 20.0475L196.814 20.6496L196.269 21.21L195.349 21.7158L194.059 22.1565L192.423 22.5245L190.487 22.816L188.307 23.031L185.952 23.1734L183.492 23.2506L180.998 23.2727L178.534 23.2513L176.157 23.1992L173.915 23.1297L171.846 23.0554L169.98 22.9888L168.339 22.9418L166.939 22.9256L165.794 22.9515L164.917 23.0312L164.322 23.1772L164.026 23.4041L164.055 23.7297L164.443 24.1762L165.242 24.7728L166.522 25.5585L168.388 26.5871L170.985 27.9335L174.525 29.7047L179.319 32.0569L185.829 35.2234L182.295 34.3331L176.335 32.3189L171.917 30.8513L168.631 29.7976L166.201 29.0682L164.434 28.6018L163.199 28.3566L162.4 28.3042L161.97 28.4257L161.86 28.7093L162.035 29.1481L162.468 29.7384L163.138 30.4788L164.028 31.3688L165.12 32.4074L166.396 33.5923L167.835 34.9183L169.41 36.3761L171.088 37.9514L172.83 39.6233L174.589 41.3647L176.315 43.1416L177.951 44.9144L179.44 46.6395L180.73 48.2721L181.773 49.769L182.534 51.0924L182.991 52.2131L183.139 53.1133L182.991 53.7882L182.574 54.2467L181.929 54.5104L181.108 54.6123L180.168 54.5945L179.17 54.5052L178.176 54.3974L177.244 54.3264L176.432 54.3499L175.792 54.5274L175.377 54.9204L175.183 55.539L175.149 56.3335L175.215 57.2505L175.323 58.2338L175.416 59.2252L175.442 60.1642L175.35 60.9904L175.099 61.6461L174.653 62.0796L173.991 62.2491L173.101 62.1259L171.989 61.6969L170.67 60.9657L169.174 59.9523L167.537 58.691L165.804 57.2274L164.019 55.6142L162.226 53.9075L160.467 52.1627L158.774 50.4317L157.178 48.7606L155.698 47.1891L154.35 45.7501L153.144 44.4702L152.085 43.3714L151.176 42.4721L150.418 41.7893L149.811 41.3405L149.356 41.1459L149.057 41.2314L148.922 41.6313L148.96 42.3926L149.191 43.5805L149.642 45.2862L150.354 47.6387L151.387 50.822L152.829 55.1025L154.81 60.8738L156.192 65.525L152.922 58.9053L150.495 54.0337L148.669 50.4357L147.282 47.7938L146.223 45.8915L145.414 44.579L144.799 43.7516L144.338 43.336L144.001 43.2807L143.765 43.5496L143.611 44.1172L143.526 44.9654L143.496 46.0802L143.51 47.449L143.555 49.0587L143.621 50.8928L143.696 52.93L143.767 55.1416L143.821 57.4904L143.845 59.9297L143.827 62.4039L143.754 64.849L143.616 67.196L143.405 69.3744L143.118 71.3168L142.753 72.9649L142.314 74.2736L141.809 75.216L141.248 75.7857L140.644 75.9973L140.01 75.8855L139.36 75.5019L138.707 74.9115L138.059 74.188L137.424 73.4102L136.806 72.6587L136.205 72.0142L135.62 71.5566L135.045 71.3669L134.47 71.5063L133.887 71.9267L133.29 72.5468L132.675 73.2867L132.042 74.0657L131.396 74.8031L130.742 75.4199L130.091 75.841L129.454 76L128.844 75.8427L128.275 75.3316L127.761 74.4486L127.311 73.1969L126.934 71.6004L126.634 69.7012L126.411 67.5561L126.262 65.2312L126.179 62.797L126.153 60.323L126.171 57.8741L126.222 55.5076L126.291 53.2714L126.366 51.2043L126.434 49.3362L126.484 47.6896L126.503 46.2815L126.481 45.1255L126.405 44.2339L126.264 43.6205L126.042 43.3026L125.722 43.3042L125.283 43.6594L124.695 44.4169L123.92 45.6461L122.905 47.4458L121.576 49.9575L119.83 53.3851L117.513 58.0271L114.397 64.3278L114.812 61.9663L116.894 55.9094L118.412 51.4219L119.503 48.0844L120.262 45.6136L120.752 43.8147L121.015 42.5512L121.083 41.7269L120.974 41.273L120.701 41.14L120.271 41.2919L119.688 41.7017L118.953 42.3484L118.068 43.2144L117.033 44.2826L115.85 45.535L114.524 46.9503L113.065 48.5027L111.486 50.1604L109.807 51.8848L108.056 53.6308L106.266 55.3472L104.477 56.979L102.732 58.4702L101.077 59.767L99.556 60.8225L98.2068 61.6003L97.0599 62.0781L96.1344 62.2496L95.4361 62.1252L94.9572 61.7312L94.6767 61.1077L94.5624 60.3049L94.5725 59.3799L94.6587 58.3927L94.7679 57.4041L94.8445 56.4728L94.8306 55.6551L94.6663 55.0049L94.2892 54.5741L93.682 54.3663L92.8931 54.3223L91.9766 54.3821L90.9884 54.4879L89.9875 54.5837L89.0344 54.6163L88.1902 54.5365L87.5136 54.301L87.057 53.8753L86.8637 53.2358L86.9637 52.3715L87.3715 51.2851L88.0849 49.9923L89.085 48.5207L90.3381 46.9069L91.7993 45.1935L93.4155 43.4253L95.1306 41.6463L96.8885 39.8968L98.6365 38.2118L100.327 36.6196L101.921 35.142L103.383 33.7942L104.687 32.5864L105.81 31.5243L106.733 30.6106L107.44 29.8463L107.912 29.232L108.129 28.7689L108.067 28.4602L107.69 28.3122L106.954 28.3359L105.794 28.5489L104.12 28.9776L101.806 29.6616L98.6722 30.6585L94.4575 32.0526L88.7778 33.9685L82.9315 35.8243L89.7723 32.4993L94.8037 30.0355L98.5197 28.1838L101.251 26.778L103.222 25.7045L104.588 24.8841L105.458 24.2603L105.907 23.792L105.991 23.4489L105.745 23.2075L105.196 23.0496L104.362 22.9603L103.26 22.9266L101.9 22.9369L100.296 22.9798L98.464 23.044L96.4256 23.1178L94.2089 23.189L91.8505 23.2447L89.3967 23.2719L86.903 23.2576L84.4332 23.1898L82.0567 23.0583L79.8446 22.8553L77.8651 22.5761L76.1783 22.2201L74.8305 21.7906L73.8505 21.2945L73.2465 20.742L73.0055 20.1457L73.094 19.5189L73.4611 18.8751L74.0423 18.2264L74.7639 17.5828L75.5465 16.9517L76.3092 16.3372L76.9705 15.7404L77.4498 15.1591L77.6656 14.5879L77.551 14.0182L77.1468 13.4408L76.5347 12.8494L75.7955 12.2406L75.0104 11.6145L74.2606 10.9742L73.6264 10.3262L73.1835 9.67958L73 9.04596L73.1316 8.43844L73.6175 7.87058L74.4776 7.35529L75.7104 6.90359L77.2935 6.52363L79.1858 6.21989L81.3309 5.99292L83.6627 5.83934L86.1105 5.75232L88.6038 5.72224L91.0768 5.73756L93.471 5.78558L95.7373 5.85324L97.8359 5.9276L99.7361 5.99619L101.414 6.04713L102.854 6.06898L104.04 6.05052L104.96 5.98024L105.602 5.84571L105.947 5.63274L105.972 5.32424L105.644 4.89876L104.914 4.3284L103.716 3.57589L101.952 2.59034L99.4841 1.30075L96.1117 -0.393875L91.5437 -2.64037L85.3462 -5.65714L86.5744 -5.72173L92.8302 -3.60423L97.4624 -2.05984L100.907 -0.94717L103.46 -0.170834L105.321 0.334217L106.634 0.612476L107.497 0.694168L107.983 0.599396L108.141 0.341011L108.01 -0.0733528L107.616 -0.639675L106.983 -1.35624L106.127 -2.22241L105.065 -3.23746L103.817 -4.39932L102.402 -5.70334L100.847 -7.14102L99.1834 -8.69877L97.4487 -10.357L95.6885 -12.0894L93.9538 -13.8632L92.2999 -15.6394L90.7834 -17.3752L89.4586 -19.0255L88.3737 -20.5467L87.5662 -21.8999L87.06 -23.0544L86.8627 -23.9904L86.9652 -24.701L87.342 -25.1927L87.9538 -25.4855L88.7508 -25.6107L89.6757 -25.6088L90.6681 -25.5274L91.6669 -25.4189L92.6124 -25.3383L93.4479 -25.3428L94.1187 -25.4916L94.5722 -25.847L94.7975 -26.4327L94.8527 -27.2028L94.7986 -28.1038L94.6936 -29.0805L94.5942 -30.0746L94.5543 -31.0261L94.6241 -31.8742L94.8476 -32.5607L95.2604 -33.0326L95.8874 -33.2465L96.7405 -33.1712L97.8183 -32.7911L99.1059 -32.1071L100.576 -31.1367L102.193 -29.9121L103.914 -28.4773L105.694 -26.8842L107.488 -25.1887L109.256 -23.4463L110.961 -21.7098L112.574 -20.0264L114.073 -18.4367L115.443 -16.9746L116.672 -15.6678L117.755 -14.5389L118.688 -13.6067L119.47 -12.8882L120.101 -12.4009L120.581 -12.1643L120.904 -12.2031L121.067 -12.5502L121.057 -13.2501L120.859 -14.3647L120.445 -15.9805L119.778 -18.2194L118.801 -21.255L117.431 -25.3384L115.547 -30.8389L113.185 -37.7896L116.62 -30.8328L119.163 -25.7196L121.072 -21.9433L122.52 -19.1657L123.625 -17.1571L124.47 -15.7586L125.113 -14.8596L125.597 -14.3823L125.952 -14.2724L126.202 -14.4916L126.368 -15.013L126.463 -15.8175L126.501 -16.8907L126.494 -18.2199L126.453 -19.7922L126.389 -21.5919L126.315 -23.5984L126.243 -25.7845L126.185 -28.1143L126.155 -30.5427L126.165 -33.0154L126.229 -35.4697L126.356 -37.8371L126.555 -40.047L126.83 -42.0312L127.183 -43.7295L127.61 -45.0946L128.105 -46.0963L128.658 -46.7249L129.256 -46.9917L129.886 -46.9284L130.534 -46.584L131.188 -46.0218L131.838 -45.3143L132.475 -44.5398L133.096 -43.7787L133.699 -43.1117L134.286 -42.619L134.862 -42.3811L135.436 -42.4686L136.018 -42.8497L136.612 -43.4434L137.225 -44.1695L137.855 -44.9477L138.499 -45.6971L139.152 -46.3383L139.804 -46.7953L140.445 -47L141.06 -46.8961L141.636 -46.443L142.16 -45.6196L142.621 -44.4256L143.01 -42.8816L143.322 -41.0271L143.557 -38.9169L143.718 -36.616L143.81 -34.1945L143.845 -31.7223L143.833 -29.2654L143.786 -26.8823L143.719 -24.6225L143.644 -22.5263L143.574 -20.6248L143.521 -18.9417L143.496 -17.4946L143.511 -16.2976L143.578 -15.3631L143.708 -14.7043L143.915 -14.3379L144.218 -14.2867L144.637 -14.5827L145.199 -15.2722L145.941 -16.4205L146.914 -18.1212L148.186 -20.5077L149.857 -23.7724L152.071 -28.1958L155.04 -34.1944L155.583 -34.1193L153.394 -27.761L151.797 -23.056L150.645 -19.5571L149.838 -16.9633L149.309 -15.0677L149.011 -13.7263L148.914 -12.8372L148.996 -12.3281L149.244 -12.1467L149.649 -12.2552L150.208 -12.6254L150.918 -13.2357L151.779 -14.0679L152.791 -15.105L153.95 -16.3294L155.254 -17.7203L156.693 -19.2529L158.254 -20.8962L159.919 -22.6129L161.66 -24.3587L163.447 -26.0834L165.239 -27.7325L166.993 -29.2497L168.665 -30.5808L170.211 -31.6775L171.59 -32.5015L172.771 -33.028L173.732 -33.2479L174.466 -33.1693L174.979 -32.8159L175.289 -32.2258L175.428 -31.4479L175.434 -30.5383L175.357 -29.557L175.247 -28.5646L175.162 -27.6203L175.157 -26.7808L175.294 -26.1005L175.633 -25.6318L176.206 -25.3921L176.97 -25.3262L177.87 -25.3734L178.85 -25.4756L179.853 -25.5767L180.818 -25.6228L181.684 -25.5639L182.391 -25.3558L182.886 -24.9623L183.123 -24.3579L183.071 -23.5296L182.713 -22.4778L182.047 -21.2164L181.091 -19.771L179.875 -18.1771L178.444 -16.4766L176.849 -14.7141L175.145 -12.934L173.391 -11.1773L171.638 -9.47998L169.935 -7.87138L168.323 -6.37429L166.838 -5.00506L165.507 -3.77448L164.354 -2.6889L163.398 -1.75146L162.656 -0.963356L162.146 -0.325127L161.886 0.162174L161.902 0.495785L162.226 0.669968L162.901 0.674599L163.989 0.493328L165.573 0.101192L167.775 -0.538853L170.763 -1.48107L174.784 -2.80483L180.197 -4.62708L187.545 -7.12264L181.179 -3.96854L175.898 -1.38704L171.998 0.549309L169.127 2.01746L167.047 3.13787L165.593 3.99432L164.65 4.64635L164.137 5.13708L163.998 5.49846L164.194 5.75471L164.696 5.9248L165.485 6.02414L166.546 6.06588L167.866 6.06188L169.432 6.02345L171.228 5.96184L173.236 5.88871L175.426 5.81627L177.765 5.75723L180.207 5.72466L182.698 5.73152L185.176 5.78999L187.573 5.91073L189.816 6.10199L191.836 6.36887L193.573 6.71273L194.978 7.13096L196.017 7.61708L196.681 8.16135L196.978 8.7516L196.939 9.37444L196.612 10.0164L196.06 10.6651L195.356 11.31L194.577 11.9435L193.806 12.5608L193.123 13.1603L192.61 13.7438L192.346 14.3161L192.329 14.4973Z" fill="url(#paint0_linear_301_635)"/>
<path fill-rule="evenodd" clip-rule="evenodd" d="M54.9776 71.48L50.729 69.5011L53.1912 63.9926L57.4418 65.9672L56.9901 61.2407L62.9183 60.6712L63.3745 65.3973L67.1715 62.6497L70.6373 67.5888L66.843 70.3403L71.0917 72.3192L68.6294 77.8277L64.3789 75.8531L64.8306 80.5796L58.9024 81.149L58.4462 76.423L54.6492 79.1706L51.1833 74.2315L54.9776 71.48Z" fill="#36C5F0"/>
<defs>
<linearGradient id="paint0_linear_301_635" x1="38.6168" y1="34.0692" x2="152.634" y2="82.4263" gradientUnits="userSpaceOnUse">
<stop stop-color="#E43E6D"/>
<stop offset="1" stop-color="#26D699"/>
</linearGradient>
</defs>
</svg>
