<svg width="420" height="932" viewBox="0 0 420 932" fill="none" xmlns="http://www.w3.org/2000/svg">
<path fill-rule="evenodd" clip-rule="evenodd" d="M-72 932C199.722 932 420 723.362 420 466C420 208.635 199.722 0 -72 0C-343.724 0 -564 208.635 -564 466C-564 723.362 -343.724 932 -72 932ZM-72 876.08C167.117 876.08 360.96 692.481 360.96 466C360.96 239.519 167.117 55.92 -72 55.92C-311.117 55.92 -504.96 239.519 -504.96 466C-504.96 692.481 -311.117 876.08 -72 876.08ZM-72 820.16C134.512 820.16 301.92 661.599 301.92 466C301.92 270.403 134.512 111.84 -72 111.84C-278.51 111.84 -445.92 270.403 -445.92 466C-445.92 661.599 -278.51 820.16 -72 820.16ZM-72 764.24C101.902 764.24 242.88 630.712 242.88 466C242.88 301.287 101.902 167.76 -72 167.76C-245.903 167.76 -386.88 301.287 -386.88 466C-386.88 630.712 -245.903 764.24 -72 764.24ZM183.84 466C183.84 599.831 69.2975 708.32 -72 708.32C-213.296 708.32 -327.84 599.831 -327.84 466C-327.84 332.17 -213.296 223.68 -72 223.68C69.2975 223.68 183.84 332.17 183.84 466ZM124.8 466C124.8 568.944 36.6877 652.4 -72 652.4C-180.69 652.4 -268.8 568.944 -268.8 466C-268.8 363.054 -180.69 279.6 -72 279.6C36.6877 279.6 124.8 363.054 124.8 466Z" fill="white" fill-opacity="0.14"/>
</svg>
