<svg width="430" height="932" viewBox="0 0 430 932" fill="none" xmlns="http://www.w3.org/2000/svg">
<path fill-rule="evenodd" clip-rule="evenodd" d="M826.517 0.327148C598.187 1.18079 413.869 210.435 414.831 467.709C413.869 210.435 227.989 2.56484 -0.338777 3.41847L-0.129785 59.3188C200.8 58.5676 364.373 241.493 365.219 467.895C366.066 694.296 203.865 878.44 2.93543 879.191L3.14442 935.091C231.472 934.238 415.792 724.981 414.831 467.709C415.792 724.981 601.67 932.854 830 932L829.791 876.1C628.861 876.851 465.288 693.925 464.442 467.524C463.596 241.122 625.795 56.9787 826.726 56.2275L826.517 0.327148ZM826.935 112.128C653.404 112.777 513.322 271.81 514.053 467.338C514.784 662.869 656.052 820.848 829.582 820.199L829.373 764.299C683.242 764.845 564.28 631.807 563.665 467.153C563.049 302.497 681.013 168.575 827.144 168.028L826.935 112.128ZM827.353 223.929C708.621 224.373 612.776 333.185 613.276 466.967C613.776 600.751 710.433 708.842 829.164 708.399L828.955 652.498C737.623 652.84 663.272 569.69 662.887 466.782C662.503 363.872 736.23 280.171 827.562 279.829L827.353 223.929ZM315.608 468.08C316.339 663.61 176.259 822.642 2.72644 823.291L2.51745 767.39C148.648 766.844 266.612 632.92 265.997 468.266C265.381 303.61 146.418 170.573 0.288199 171.12L0.0792069 115.219C173.611 114.57 314.877 272.552 315.608 468.08ZM216.385 468.451C216.885 602.235 121.041 711.046 2.30846 711.49L2.09946 655.59C93.4298 655.248 167.159 571.545 166.774 468.637C166.389 365.727 92.0365 282.579 0.706183 282.92L0.497191 227.02C119.23 226.576 215.885 334.669 216.385 468.451Z" fill="#F5F5F5" fill-opacity="0.15"/>
</svg>
