{
	"asset":{
		"generator":"Khronos glTF Blender I/O v3.6.27",
		"version":"2.0"
	},
	"scene":0,
	"scenes":[
		{
			"name":"Scene",
			"nodes":[
				1
			]
		}
	],
	"nodes":[
		{
			"mesh":0,
			"name":"human_skeleton.1",
			"rotation":[
				0.06691666692495346,
				0.06828208267688751,
				0.04240843281149864,
				0.994515597820282
			],
			"scale":[
				0.7686432600021362,
				0.7686432600021362,
				0.7686432600021362
			],
			"translation":[
				-0.586270272731781,
				19.87455177307129,
				-6.1589274406433105
			]
		},
		{
			"children":[
				0
			],
			"name":"RootNode.0",
			"rotation":[
				-0.005076354369521141,
				0.38069844245910645,
				-0.0019258995307609439,
				0.9246833324432373
			],
			"scale":[
				0.1472207009792328,
				0.14722073078155518,
				0.14722071588039398
			],
			"translation":[
				0.5957895517349243,
				-1.6722768545150757,
				0.5803350806236267
			]
		}
	],
	"materials":[
		{
			"doubleSided":true,
			"name":"Material_0",
			"normalTexture":{
				"index":0
			},
			"occlusionTexture":{
				"index":1
			},
			"pbrMetallicRoughness":{
				"baseColorTexture":{
					"index":2
				},
				"metallicFactor":0,
				"metallicRoughnessTexture":{
					"index":1
				}
			}
		}
	],
	"meshes":[
		{
			"name":"Mesh_0",
			"primitives":[
				{
					"attributes":{
						"POSITION":0,
						"NORMAL":1,
						"TEXCOORD_0":2
					},
					"indices":3,
					"material":0
				}
			]
		}
	],
	"textures":[
		{
			"sampler":0,
			"source":0
		},
		{
			"sampler":0,
			"source":1
		},
		{
			"sampler":0,
			"source":2
		}
	],
	"images":[
		{
			"mimeType":"image/png",
			"name":"Image_2",
			"uri":"Image_2.png"
		},
		{
			"mimeType":"image/png",
			"name":"Image_3-Image_1",
			"uri":"Image_3-Image_1.png"
		},
		{
			"mimeType":"image/png",
			"name":"Image_0",
			"uri":"Image_0.png"
		}
	],
	"accessors":[
		{
			"bufferView":0,
			"componentType":5126,
			"count":59697,
			"max":[
				3.368908405303955,
				26.150178909301758,
				2.71187686920166
			],
			"min":[
				-3.400710105895996,
				0,
				-1.491803526878357
			],
			"type":"VEC3"
		},
		{
			"bufferView":1,
			"componentType":5126,
			"count":59697,
			"type":"VEC3"
		},
		{
			"bufferView":2,
			"componentType":5126,
			"count":59697,
			"type":"VEC2"
		},
		{
			"bufferView":3,
			"componentType":5123,
			"count":299397,
			"type":"SCALAR"
		}
	],
	"bufferViews":[
		{
			"buffer":0,
			"byteLength":716364,
			"byteOffset":0,
			"target":34962
		},
		{
			"buffer":0,
			"byteLength":716364,
			"byteOffset":716364,
			"target":34962
		},
		{
			"buffer":0,
			"byteLength":477576,
			"byteOffset":1432728,
			"target":34962
		},
		{
			"buffer":0,
			"byteLength":598794,
			"byteOffset":1910304,
			"target":34963
		}
	],
	"samplers":[
		{
			"magFilter":9729,
			"minFilter":9987
		}
	],
	"buffers":[
		{
			"byteLength":2509100,
			"uri":"skeleton.bin"
		}
	]
}
