{
	"asset":{
		"generator":"Khronos glTF Blender I/O v3.6.27",
		"version":"2.0"
	},
	"scene":0,
	"scenes":[
		{
			"name":"Scene",
			"nodes":[
				1
			]
		}
	],
	"nodes":[
		{
			"mesh":0,
			"name":"ankylosaurus.1",
			"rotation":[
				-0.027844419702887535,
				0.37117862701416016,
				-0.004786114674061537,
				0.9281315803527832
			],
			"translation":[
				1.2206096649169922,
				16.873157501220703,
				0.5967597961425781
			]
		},
		{
			"children":[
				0
			],
			"name":"RootNode.0",
			"scale":[
				0.06133062392473221,
				0.06133062392473221,
				0.06133062392473221
			],
			"translation":[
				0.49282652139663696,
				-0.7934159636497498,
				0.05239538103342056
			]
		}
	],
	"materials":[
		{
			"doubleSided":true,
			"name":"Material_0",
			"normalTexture":{
				"index":0
			},
			"occlusionTexture":{
				"index":1
			},
			"pbrMetallicRoughness":{
				"baseColorTexture":{
					"index":2
				},
				"metallicFactor":0,
				"metallicRoughnessTexture":{
					"index":1
				}
			}
		}
	],
	"meshes":[
		{
			"name":"Mesh_0",
			"primitives":[
				{
					"attributes":{
						"POSITION":0,
						"NORMAL":1,
						"TEXCOORD_0":2
					},
					"indices":3,
					"material":0
				}
			]
		}
	],
	"textures":[
		{
			"sampler":0,
			"source":0
		},
		{
			"sampler":0,
			"source":1
		},
		{
			"sampler":0,
			"source":2
		}
	],
	"images":[
		{
			"mimeType":"image/png",
			"name":"Image_2",
			"uri":"Image_2.png"
		},
		{
			"mimeType":"image/png",
			"name":"Image_3-Image_1",
			"uri":"Image_3-Image_1.png"
		},
		{
			"mimeType":"image/png",
			"name":"Image_0",
			"uri":"Image_0.png"
		}
	],
	"accessors":[
		{
			"bufferView":0,
			"componentType":5126,
			"count":13708,
			"max":[
				17.496366500854492,
				42.065757751464844,
				32.551300048828125
			],
			"min":[
				-17.496366500854492,
				-0.0031389999203383923,
				-32.551300048828125
			],
			"type":"VEC3"
		},
		{
			"bufferView":1,
			"componentType":5126,
			"count":13708,
			"type":"VEC3"
		},
		{
			"bufferView":2,
			"componentType":5126,
			"count":13708,
			"type":"VEC2"
		},
		{
			"bufferView":3,
			"componentType":5123,
			"count":69600,
			"type":"SCALAR"
		}
	],
	"bufferViews":[
		{
			"buffer":0,
			"byteLength":164496,
			"byteOffset":0,
			"target":34962
		},
		{
			"buffer":0,
			"byteLength":164496,
			"byteOffset":164496,
			"target":34962
		},
		{
			"buffer":0,
			"byteLength":109664,
			"byteOffset":328992,
			"target":34962
		},
		{
			"buffer":0,
			"byteLength":139200,
			"byteOffset":438656,
			"target":34963
		}
	],
	"samplers":[
		{
			"magFilter":9729,
			"minFilter":9987
		}
	],
	"buffers":[
		{
			"byteLength":577856,
			"uri":"apatosaurus.bin"
		}
	]
}
